<?xml version="1.0" encoding="UTF-8"?>
<svg xmlns="http://www.w3.org/2000/svg" xmlns:xlink="http://www.w3.org/1999/xlink" width="5001" height="3258" viewBox="0 0 5001 3258">
<path fill-rule="evenodd" fill="rgb(21.580505%, 41.184998%, 18.041992%)" fill-opacity="1" d="M 1 0.261719 L 417.664062 0.261719 L 417.664062 3257.734375 L 1 3257.734375 L 1 0.261719 "/>
<path fill-rule="evenodd" fill="rgb(27.050781%, 52.146912%, 22.338867%)" fill-opacity="1" d="M 417.664062 0.261719 L 834.332031 0.261719 L 834.332031 3257.734375 L 417.664062 3257.734375 L 417.664062 0.261719 "/>
<path fill-rule="evenodd" fill="rgb(21.580505%, 41.184998%, 18.041992%)" fill-opacity="1" d="M 834.332031 0.261719 L 1251 0.261719 L 1251 3257.734375 L 834.332031 3257.734375 L 834.332031 0.261719 "/>
<path fill-rule="evenodd" fill="rgb(27.050781%, 52.146912%, 22.338867%)" fill-opacity="1" d="M 1251 0.261719 L 1667.671875 0.261719 L 1667.671875 3257.734375 L 1251 3257.734375 L 1251 0.261719 "/>
<path fill-rule="evenodd" fill="rgb(21.580505%, 41.184998%, 18.041992%)" fill-opacity="1" d="M 1667.671875 0.261719 L 2084.328125 0.261719 L 2084.328125 3257.734375 L 1667.671875 3257.734375 L 1667.671875 0.261719 "/>
<path fill-rule="evenodd" fill="rgb(27.050781%, 52.146912%, 22.338867%)" fill-opacity="1" d="M 2084.328125 0.261719 L 2501 0.261719 L 2501 3257.734375 L 2084.328125 3257.734375 L 2084.328125 0.261719 "/>
<path fill-rule="evenodd" fill="rgb(21.580505%, 41.184998%, 18.041992%)" fill-opacity="1" d="M 2501 0.261719 L 2917.671875 0.261719 L 2917.671875 3257.734375 L 2501 3257.734375 L 2501 0.261719 "/>
<path fill-rule="evenodd" fill="rgb(27.050781%, 52.146912%, 22.338867%)" fill-opacity="1" d="M 2917.671875 0.261719 L 3334.328125 0.261719 L 3334.328125 3257.734375 L 2917.671875 3257.734375 L 2917.671875 0.261719 "/>
<path fill-rule="evenodd" fill="rgb(21.580505%, 41.184998%, 18.041992%)" fill-opacity="1" d="M 3334.328125 0.261719 L 3751 0.261719 L 3751 3257.734375 L 3334.328125 3257.734375 L 3334.328125 0.261719 "/>
<path fill-rule="evenodd" fill="rgb(27.050781%, 52.146912%, 22.338867%)" fill-opacity="1" d="M 3751 0.261719 L 4167.671875 0.261719 L 4167.671875 3257.734375 L 3751 3257.734375 L 3751 0.261719 "/>
<path fill-rule="evenodd" fill="rgb(21.580505%, 41.184998%, 18.041992%)" fill-opacity="1" d="M 4167.671875 0.261719 L 4584.328125 0.261719 L 4584.328125 3257.734375 L 4167.671875 3257.734375 L 4167.671875 0.261719 "/>
<path fill-rule="evenodd" fill="rgb(27.050781%, 52.146912%, 22.338867%)" fill-opacity="1" d="M 4584.328125 0.261719 L 5001 0.261719 L 5001 3257.734375 L 4584.328125 3257.734375 L 4584.328125 0.261719 "/>
<path fill-rule="nonzero" fill="rgb(100%, 100%, 100%)" fill-opacity="1" d="M 432.238281 346.359375 L 2515.691406 346.359375 L 2515.691406 2911.640625 L 417.550781 2911.640625 L 417.550781 346.359375 Z M 2486.308594 375.738281 L 446.929688 375.738281 L 446.929688 2882.257812 L 2486.308594 2882.257812 L 2486.308594 375.738281 "/>
<path fill-rule="nonzero" fill="rgb(100%, 100%, 100%)" fill-opacity="1" d="M 417.550781 1425.800781 L 300.113281 1425.800781 L 300.113281 1832.199219 L 417.550781 1832.199219 Z M 285.421875 1396.421875 L 446.929688 1396.421875 L 446.929688 1861.578125 L 270.734375 1861.578125 L 270.734375 1396.421875 L 285.421875 1396.421875 "/>
<path fill-rule="nonzero" fill="rgb(100%, 100%, 100%)" fill-opacity="1" d="M 432.238281 1255.949219 L 713.867188 1255.949219 L 713.867188 2017.398438 L 417.550781 2017.398438 L 417.550781 1255.949219 Z M 684.484375 1285.328125 L 446.929688 1285.328125 L 446.929688 1988.019531 L 684.484375 1988.019531 L 684.484375 1285.328125 "/>
<path fill-rule="nonzero" fill="rgb(100%, 100%, 100%)" fill-opacity="1" d="M 432.238281 823.859375 L 1100.921875 823.859375 L 1100.921875 2434.136719 L 417.550781 2434.136719 L 417.550781 823.859375 Z M 1071.539062 853.238281 L 446.929688 853.238281 L 446.929688 2404.757812 L 1071.539062 2404.757812 L 1071.539062 853.238281 "/>
<path fill-rule="nonzero" fill="rgb(100%, 100%, 100%)" fill-opacity="1" d="M 2501 1113.800781 C 2643.269531 1113.800781 2772.070312 1171.46875 2865.300781 1264.699219 C 2958.53125 1357.929688 3016.199219 1486.730469 3016.199219 1629 C 3016.199219 1771.261719 2958.53125 1900.058594 2865.300781 1993.300781 C 2772.070312 2086.53125 2643.269531 2144.199219 2501 2144.199219 C 2358.730469 2144.199219 2229.929688 2086.53125 2136.699219 1993.300781 C 2043.46875 1900.058594 1985.800781 1771.261719 1985.800781 1629 C 1985.800781 1486.730469 2043.46875 1357.929688 2136.699219 1264.699219 C 2229.929688 1171.46875 2358.730469 1113.800781 2501 1113.800781 Z M 2844.53125 1285.46875 C 2756.609375 1197.558594 2635.148438 1143.179688 2501 1143.179688 C 2366.839844 1143.179688 2245.390625 1197.558594 2157.480469 1285.46875 C 2069.558594 1373.390625 2015.179688 1494.839844 2015.179688 1629 C 2015.179688 1763.148438 2069.558594 1884.609375 2157.480469 1972.519531 C 2245.390625 2060.441406 2366.839844 2114.820312 2501 2114.820312 C 2635.148438 2114.820312 2756.609375 2060.441406 2844.53125 1972.519531 C 2932.441406 1884.609375 2986.820312 1763.148438 2986.820312 1629 C 2986.820312 1494.839844 2932.441406 1373.390625 2844.53125 1285.46875 "/>
<path fill-rule="evenodd" fill="rgb(100%, 100%, 100%)" fill-opacity="1" d="M 859.339844 1615.648438 C 874.078125 1615.648438 886.03125 1627.601562 886.03125 1642.351562 C 886.03125 1657.089844 874.078125 1669.039062 859.339844 1669.039062 C 844.59375 1669.039062 832.644531 1657.089844 832.644531 1642.351562 C 832.644531 1627.601562 844.59375 1615.648438 859.339844 1615.648438 "/>
<path fill-rule="nonzero" fill="rgb(100%, 100%, 100%)" fill-opacity="1" d="M 1093.289062 1277.011719 C 1160.609375 1314.160156 1216.878906 1368.851562 1255.910156 1434.921875 C 1293.640625 1498.78125 1315.289062 1573.238281 1315.289062 1652.710938 C 1315.289062 1732.179688 1293.640625 1806.628906 1255.910156 1870.488281 C 1216.878906 1936.558594 1160.609375 1991.261719 1093.289062 2028.410156 L 1071.539062 2040.410156 L 1071.539062 1265.011719 Z M 1230.660156 1449.839844 C 1198.578125 1395.53125 1154.011719 1349.488281 1100.921875 1315.640625 L 1100.921875 1989.78125 C 1154.011719 1955.929688 1198.578125 1909.878906 1230.660156 1855.570312 C 1265.769531 1796.160156 1285.910156 1726.808594 1285.910156 1652.710938 C 1285.910156 1578.609375 1265.769531 1509.261719 1230.660156 1449.839844 "/>
<path fill-rule="nonzero" fill="rgb(100%, 100%, 100%)" fill-opacity="1" d="M 4555.070312 375.738281 L 2515.691406 375.738281 L 2515.691406 2882.257812 L 4555.070312 2882.257812 Z M 2501 346.359375 L 4584.449219 346.359375 L 4584.449219 2911.640625 L 2486.308594 2911.640625 L 2486.308594 346.359375 L 2501 346.359375 "/>
<path fill-rule="nonzero" fill="rgb(100%, 100%, 100%)" fill-opacity="1" d="M 4569.761719 1396.421875 L 4731.269531 1396.421875 L 4731.269531 1861.578125 L 4555.070312 1861.578125 L 4555.070312 1396.421875 Z M 4701.890625 1425.800781 L 4584.449219 1425.800781 L 4584.449219 1832.199219 L 4701.890625 1832.199219 L 4701.890625 1425.800781 "/>
<path fill-rule="nonzero" fill="rgb(100%, 100%, 100%)" fill-opacity="1" d="M 4555.070312 1285.328125 L 4317.511719 1285.328125 L 4317.511719 1988.019531 L 4555.070312 1988.019531 Z M 4302.820312 1255.949219 L 4584.449219 1255.949219 L 4584.449219 2017.398438 L 4288.128906 2017.398438 L 4288.128906 1255.949219 L 4302.820312 1255.949219 "/>
<path fill-rule="nonzero" fill="rgb(100%, 100%, 100%)" fill-opacity="1" d="M 4555.070312 853.238281 L 3930.460938 853.238281 L 3930.460938 2404.757812 L 4555.070312 2404.757812 Z M 3915.769531 823.859375 L 4584.449219 823.859375 L 4584.449219 2434.136719 L 3901.078125 2434.136719 L 3901.078125 823.859375 L 3915.769531 823.859375 "/>
<path fill-rule="evenodd" fill="rgb(100%, 100%, 100%)" fill-opacity="1" d="M 4142.660156 1615.648438 C 4127.921875 1615.648438 4115.96875 1627.601562 4115.96875 1642.351562 C 4115.96875 1657.089844 4127.921875 1669.039062 4142.660156 1669.039062 C 4157.410156 1669.039062 4169.359375 1657.089844 4169.359375 1642.351562 C 4169.359375 1627.601562 4157.410156 1615.648438 4142.660156 1615.648438 "/>
<path fill-rule="nonzero" fill="rgb(100%, 100%, 100%)" fill-opacity="1" d="M 3901.078125 1315.640625 C 3847.988281 1349.488281 3803.421875 1395.53125 3771.339844 1449.839844 C 3736.230469 1509.261719 3716.089844 1578.609375 3716.089844 1652.710938 C 3716.089844 1726.808594 3736.230469 1796.160156 3771.339844 1855.570312 C 3803.421875 1909.878906 3847.988281 1955.929688 3901.078125 1989.78125 Z M 3746.089844 1434.921875 C 3785.128906 1368.851562 3841.390625 1314.160156 3908.710938 1277.011719 L 3930.460938 1265.011719 L 3930.460938 2040.410156 L 3908.710938 2028.410156 C 3841.390625 1991.261719 3785.128906 1936.558594 3746.089844 1870.488281 C 3708.359375 1806.628906 3686.710938 1732.179688 3686.710938 1652.710938 C 3686.710938 1573.238281 3708.359375 1498.78125 3746.089844 1434.921875 "/>
<path fill-rule="nonzero" fill="rgb(100%, 100%, 100%)" fill-opacity="1" d="M 417.550781 2896.949219 L 417.550781 2744.027344 L 432.238281 2744.027344 C 474.464844 2744.027344 512.695312 2761.144531 540.367188 2788.820312 C 568.039062 2816.492188 585.15625 2854.722656 585.15625 2896.949219 L 585.15625 2911.640625 L 417.550781 2911.640625 Z M 446.929688 2774.277344 L 446.929688 2882.257812 L 554.910156 2882.257812 C 551.566406 2854.015625 538.691406 2828.6875 519.59375 2809.59375 C 500.496094 2790.496094 475.171875 2777.621094 446.929688 2774.277344 "/>
<path fill-rule="nonzero" fill="rgb(100%, 100%, 100%)" fill-opacity="1" d="M 446.929688 375.738281 L 446.929688 483.71875 C 475.171875 480.371094 500.496094 467.5 519.59375 448.398438 C 538.691406 429.308594 551.566406 403.980469 554.910156 375.738281 Z M 417.550781 499.28125 L 417.550781 346.359375 L 585.15625 346.359375 L 585.15625 361.050781 C 585.15625 403.269531 568.039062 441.5 540.367188 469.179688 C 512.695312 496.851562 474.464844 513.96875 432.238281 513.96875 L 417.550781 513.96875 L 417.550781 499.28125 "/>
<path fill-rule="nonzero" fill="rgb(100%, 100%, 100%)" fill-opacity="1" d="M 4584.449219 361.050781 L 4584.449219 513.96875 L 4569.761719 513.96875 C 4527.53125 513.96875 4489.300781 496.851562 4461.628906 469.179688 C 4433.960938 441.5 4416.839844 403.269531 4416.839844 361.050781 L 4416.839844 346.359375 L 4584.449219 346.359375 Z M 4555.070312 483.71875 L 4555.070312 375.738281 L 4447.089844 375.738281 C 4450.429688 403.980469 4463.308594 429.308594 4482.398438 448.398438 C 4501.5 467.5 4526.828125 480.371094 4555.070312 483.71875 "/>
<path fill-rule="nonzero" fill="rgb(100%, 100%, 100%)" fill-opacity="1" d="M 4555.070312 2882.257812 L 4555.070312 2774.277344 C 4526.828125 2777.621094 4501.5 2790.496094 4482.398438 2809.59375 C 4463.308594 2828.6875 4450.429688 2854.015625 4447.089844 2882.257812 Z M 4584.449219 2758.71875 L 4584.449219 2911.640625 L 4416.839844 2911.640625 L 4416.839844 2896.949219 C 4416.839844 2854.722656 4433.960938 2816.492188 4461.628906 2788.820312 C 4489.300781 2761.144531 4527.53125 2744.027344 4569.761719 2744.027344 L 4584.449219 2744.027344 L 4584.449219 2758.71875 "/>
</svg>
